# xmcd
#
# Track frame offsets:
#	183
#	13453
#	27305
#	35080
#	56648
#	62520
#	69283
#	78150
#	89380
#	100768
#	113713
#	129043
#	136520
#	141190
#	149200
#	154108
#	162570
#	167463
#	187660
#	198478
#	206843
#	214823
#	236103
#
# Disc length: 3328 seconds
#
# Revision: 4
# Processed by: cddbd v1.5.2PL0 Copyright (c) Steve Scherf et al.
# Submitted via: audiograbber 1.83.01
#
DISCID=450cfe17
DTITLE=Philip Jones Brass Ensemble - Musik für Bläser
DYEAR=1992
DGENRE=Classical
TTITLE0=Philip Jones Brass Ensemble - Trumpet Voluntary (Jeremiah Clarke)
TTITLE1=Philip Jones Brass Ensemble - Trumpet Tune And Air (Henry Purcell)
TTITLE2=Philip Jones Brass Ensemble - Canzona Sol, Sol La Sol (Giovanni Gabriel
TTITLE2=i)
TTITLE3=Philip Jones Brass Ensemble - Sonata Pian'e Forte (Giovanni Gabrieli)
TTITLE4=Philip Jones Brass Ensemble - Suite, I La Mourisque (Tylman Susato)
TTITLE5=Philip Jones Brass Ensemble - Suite, II Branle Quatre Branles (Tylman S
TTITLE5=usato)
TTITLE6=Philip Jones Brass Ensemble - Suite, III Ronde (Tylman Susato)
TTITLE7=Philip Jones Brass Ensemble - Suite, IV Basse Danse Bergeret (Tylman Su
TTITLE7=sato)
TTITLE8=Philip Jones Brass Ensemble - Suite, V Ronde Mon Amy (Tylman Susato)
TTITLE9=Philip Jones Brass Ensemble - Suite, VI Pavane Bataille (Tylman Susato)
TTITLE10=Philip Jones Brass Ensemble - Earle Of Oxford's March (William Byrd)
TTITLE11=Philip Jones Brass Ensemble - I Allemande, Music for his Majesty's Sac
TTITLE11=kbuts and Cornetts (Matthew Locke)
TTITLE12=Philip Jones Brass Ensemble - II Sarabande, Music for his Majesty's Sa
TTITLE12=ckbuts and Cornetts (Matthew Locke)
TTITLE13=Philip Jones Brass Ensemble - III Allemande, Music for his Majesty's S
TTITLE13=ackbuts and Cornetts (Matthew Locke)
TTITLE14=Philip Jones Brass Ensemble - IV Courante, Music for his Majesty's Sac
TTITLE14=kbuts and Cornetts (Matthew Locke)
TTITLE15=Philip Jones Brass Ensemble - V Air, Music for his Majesty's Sackbuts 
TTITLE15=and Cornetts (Matthew Locke)
TTITLE16=Philip Jones Brass Ensemble - VI Courante, Music for his Majesty's Sac
TTITLE16=kbuts and Cornetts (Matthew Locke)
TTITLE17=Philip Jones Brass Ensemble - Greensleeves(Anonymous)
TTITLE18=Philip Jones Brass Ensemble - La Rejouissance (Feuerwerksmusik) (Georg
TTITLE18=Friedrich Händel)
TTITLE19=Philip Jones Brass Ensemble - I Galliard Battaglia (Suite, Die Schlach
TTITLE19=t) (Samuel Scheidt)
TTITLE20=Philip Jones Brass Ensemble - II Courant Dolorosa (Suite, Die Schlacht
TTITLE20=) (Samuel Scheidt)
TTITLE21=Philip Jones Brass Ensemble - III Canzon 'Ad Imitationem Bergamas' (Su
TTITLE21=ite, Die Schlacht) (Samuel Scheidt)
TTITLE22=Philip Jones Brass Ensemble - Marsch (Carl Philipp Emanuel Bach)
EXTD=
EXTT0=
EXTT1=
EXTT2=
EXTT3=
EXTT4=
EXTT5=
EXTT6=
EXTT7=
EXTT8=
EXTT9=
EXTT10=
EXTT11=
EXTT12=
EXTT13=
EXTT14=
EXTT15=
EXTT16=
EXTT17=
EXTT18=
EXTT19=
EXTT20=
EXTT21=
EXTT22=
PLAYORDER=
